<svg width="74" height="74" viewBox="0 0 74 74" fill="none" xmlns="http://www.w3.org/2000/svg">
<g opacity="0.9">
<path d="M45.0907 20.8186H40.8974C36.1614 20.8186 33.1521 23.9266 33.1521 28.7613V32.4119H28.9094C28.5641 32.4119 28.2681 32.7079 28.2681 33.0533V38.3813C28.2681 38.7266 28.5641 39.0226 28.9094 39.0226H33.1521V52.4413C33.1521 52.7866 33.4481 53.0826 33.7934 53.0826H39.3187C39.6641 53.0826 39.9601 52.7866 39.9601 52.4413V39.0719H44.8934C45.2387 39.0719 45.5347 38.7759 45.5347 38.4306V33.1026C45.5347 32.9053 45.4854 32.7573 45.3374 32.6586C45.1894 32.5599 45.0414 32.4613 44.8934 32.4613H39.9601V29.3533C39.9601 27.8733 40.3054 27.0839 42.2787 27.0839H45.0907C45.4361 27.0839 45.7321 26.7879 45.7321 26.4426V21.5093C45.7321 21.1146 45.4361 20.8186 45.0907 20.8186Z" fill="#4D12AE"/>
</g>
<path d="M34.2866 66.9947C25.5546 66.9947 17.316 63.5907 11.1 57.3747C4.88396 51.1587 1.5293 43.0187 1.5293 34.2373C1.5293 25.5053 4.9333 17.2666 11.1493 11.0506C17.3653 4.83465 25.5546 1.47998 34.2866 1.47998C43.0186 1.47998 51.2573 4.88398 57.4733 11.1C63.6893 17.316 67.0933 25.5053 67.0933 34.2866C67.0933 43.0187 63.6893 51.2573 57.4733 57.4733C51.2573 63.5907 43.068 66.9947 34.2866 66.9947ZM34.2866 4.43998C17.8586 4.43998 4.4893 17.8093 4.4893 34.2373C4.4893 50.6653 17.8586 64.084 34.336 64.084C50.764 64.084 64.1826 50.7147 64.1826 34.2373C64.1826 17.76 50.764 4.43998 34.2866 4.43998Z" fill="#333333"/>
<path d="M39.7134 65.712C30.9814 65.712 22.7427 62.308 16.5267 56.092C10.3601 49.9253 6.90674 41.6866 6.90674 32.9053C6.90674 24.1733 10.3107 15.9346 16.5267 9.71863C22.7427 3.50263 30.9321 0.0986328 39.7134 0.0986328C48.4454 0.0986328 56.6841 3.50263 62.9001 9.71863C69.0667 15.8853 72.5201 24.124 72.5201 32.9053C72.5201 41.6373 69.1161 49.876 62.9001 56.092C56.6841 62.308 48.4454 65.712 39.7134 65.712ZM39.7134 3.10797C23.2361 3.10797 9.86674 16.4773 9.86674 32.9546C9.86674 49.3826 23.2361 62.8013 39.7134 62.8013C56.1907 62.8013 69.5601 49.432 69.5601 32.9546C69.5107 16.4773 56.1414 3.10797 39.7134 3.10797Z" fill="#9942B8"/>
<path opacity="0.9" d="M35.2734 73.8025C26.5414 73.8025 18.3028 70.3985 12.0868 64.1825C5.92011 58.0159 2.51611 49.8265 2.51611 41.0452C2.51611 32.3132 5.92011 24.0745 12.1361 17.8585C18.3521 11.6425 26.5414 8.23853 35.3228 8.23853C44.1041 8.23853 52.2934 11.6425 58.5094 17.8585C64.6268 24.0745 68.0801 32.3132 68.0801 41.0452C68.0801 49.7772 64.6761 58.0159 58.4601 64.2319C52.2934 70.3985 44.0548 73.8025 35.2734 73.8025ZM35.2734 11.2479C18.8454 11.2479 5.42678 24.6172 5.42678 41.0945C5.42678 57.5719 18.7961 70.9412 35.2734 70.9412C51.7014 70.9412 65.1201 57.5719 65.1201 41.0945C65.1201 24.6172 51.7508 11.2479 35.2734 11.2479Z" fill="#4D12AE"/>
</svg>
