<svg width="63" height="63" viewBox="0 0 63 63" fill="none" xmlns="http://www.w3.org/2000/svg">
<path d="M31.8146 33.5475C31.6309 33.5213 31.3946 33.5213 31.1846 33.5475C26.5646 33.39 22.8896 29.61 22.8896 24.9638C22.8896 20.2125 26.7221 16.3538 31.4996 16.3538C36.2509 16.3538 40.1096 20.2125 40.1096 24.9638C40.0834 29.61 36.4346 33.39 31.8146 33.5475Z" stroke="#292D32" stroke-width="1.5" stroke-linecap="round" stroke-linejoin="round"/>
<path d="M49.1926 50.8725C44.5201 55.1512 38.3251 57.75 31.5001 57.75C24.6751 57.75 18.4801 55.1512 13.8076 50.8725C14.0701 48.405 15.6451 45.99 18.4539 44.1C25.6464 39.3225 37.4064 39.3225 44.5464 44.1C47.3551 45.99 48.9301 48.405 49.1926 50.8725Z" stroke="#292D32" stroke-width="1.5" stroke-linecap="round" stroke-linejoin="round"/>
<path d="M31.5 57.75C45.9975 57.75 57.75 45.9975 57.75 31.5C57.75 17.0025 45.9975 5.25 31.5 5.25C17.0025 5.25 5.25 17.0025 5.25 31.5C5.25 45.9975 17.0025 57.75 31.5 57.75Z" stroke="#292D32" stroke-width="1.5" stroke-linecap="round" stroke-linejoin="round"/>
</svg>
