<svg width="74" height="74" viewBox="0 0 74 74" fill="none" xmlns="http://www.w3.org/2000/svg">
<path d="M34.2866 66.9947C25.5546 66.9947 17.316 63.5907 11.1 57.3747C4.88396 51.1587 1.5293 43.0187 1.5293 34.2373C1.5293 25.5053 4.9333 17.2666 11.1493 11.0506C17.3653 4.83465 25.5546 1.47998 34.2866 1.47998C43.0186 1.47998 51.2573 4.88398 57.4733 11.1C63.6893 17.316 67.0933 25.5053 67.0933 34.2866C67.0933 43.0187 63.6893 51.2573 57.4733 57.4733C51.2573 63.5907 43.068 66.9947 34.2866 66.9947ZM34.2866 4.43998C17.8586 4.43998 4.4893 17.8093 4.4893 34.2373C4.4893 50.6653 17.8586 64.084 34.336 64.084C50.764 64.084 64.1826 50.7147 64.1826 34.2373C64.1826 17.76 50.764 4.43998 34.2866 4.43998Z" fill="#333333"/>
<path d="M39.7134 65.712C30.9814 65.712 22.7427 62.308 16.5267 56.092C10.3601 49.9253 6.90674 41.6866 6.90674 32.9053C6.90674 24.1733 10.3107 15.9346 16.5267 9.71863C22.7427 3.50263 30.9321 0.0986328 39.7134 0.0986328C48.4454 0.0986328 56.6841 3.50263 62.9001 9.71863C69.0667 15.8853 72.5201 24.124 72.5201 32.9053C72.5201 41.6373 69.1161 49.876 62.9001 56.092C56.6841 62.308 48.4454 65.712 39.7134 65.712ZM39.7134 3.10797C23.2361 3.10797 9.86674 16.4773 9.86674 32.9546C9.86674 49.3826 23.2361 62.8013 39.7134 62.8013C56.1907 62.8013 69.5601 49.432 69.5601 32.9546C69.5107 16.4773 56.1414 3.10797 39.7134 3.10797Z" fill="#9942B8"/>
<path opacity="0.9" d="M35.2734 73.8025C26.5414 73.8025 18.3028 70.3985 12.0868 64.1825C5.92011 58.0159 2.51611 49.8265 2.51611 41.0452C2.51611 32.3132 5.92011 24.0745 12.1361 17.8585C18.3521 11.6425 26.5414 8.23853 35.3228 8.23853C44.1041 8.23853 52.2934 11.6425 58.5094 17.8585C64.6268 24.0745 68.0801 32.3132 68.0801 41.0452C68.0801 49.7772 64.6761 58.0159 58.4601 64.2319C52.2934 70.3985 44.0548 73.8025 35.2734 73.8025ZM35.2734 11.2479C18.8454 11.2479 5.42678 24.6172 5.42678 41.0945C5.42678 57.5719 18.7961 70.9412 35.2734 70.9412C51.7015 70.9412 65.1201 57.5719 65.1201 41.0945C65.1201 24.6172 51.7508 11.2479 35.2734 11.2479Z" fill="#4D12AE"/>
<path d="M49.4631 19.978C38.8139 24.2048 28.2195 28.4316 17.5702 32.6583C16.8017 32.9877 16.0332 33.317 16.0332 34.2502C16.0332 35.2932 16.8566 35.6226 17.68 35.897C19.9855 36.7753 22.291 37.7085 24.6514 38.5319C25.4199 38.8064 25.7493 39.1906 25.914 39.9591C26.5178 42.5391 27.2314 45.1191 27.945 47.699C28.3842 49.3458 29.2624 49.6203 30.6348 48.6871C31.7326 47.9186 32.8854 47.1501 33.9284 46.2718C34.8067 45.5033 35.4105 45.5582 36.3437 46.2169C38.7041 47.9186 41.1194 49.5105 43.5347 51.1573C45.2364 52.3101 46.1146 51.9258 46.5538 49.8948C46.6087 49.7301 46.6087 49.5105 46.6636 49.3458C47.8712 43.1429 49.024 36.94 50.2316 30.7371C50.8355 27.5533 51.4393 24.3695 52.0431 21.2406C51.9882 19.9231 51.0001 19.3742 49.4631 19.978ZM23.828 35.1834C23.0595 34.9638 22.3459 34.6345 21.3029 34.1953C28.988 31.1762 36.3437 28.2669 43.7542 25.3026C43.8091 25.3575 43.8091 25.4124 43.864 25.5222C38.8687 30.2979 33.9284 35.1285 28.9331 39.9042C28.6586 36.7753 26.2433 35.9519 23.828 35.1834ZM29.5918 42.9233C29.482 42.5391 29.4271 42.1548 29.2624 41.4961C30.4701 42.3195 31.5131 43.0331 32.556 43.6918C30.3054 45.6131 30.3054 45.6131 29.5918 42.9233ZM43.9738 48.0284C40.1313 45.4484 36.4535 42.9233 32.6109 40.3434C37.8258 35.3481 42.9857 30.3528 48.3104 25.1929C46.8283 32.9328 45.401 40.3983 43.9738 48.0284Z" fill="#4D12AE"/>
</svg>
