<svg width="74" height="74" viewBox="0 0 74 74" fill="none" xmlns="http://www.w3.org/2000/svg">
<path d="M34.2866 66.9947C25.5546 66.9947 17.316 63.5907 11.1 57.3747C4.88396 51.1587 1.5293 43.0187 1.5293 34.2373C1.5293 25.5053 4.9333 17.2666 11.1493 11.0506C17.3653 4.83465 25.5546 1.47998 34.2866 1.47998C43.0186 1.47998 51.2573 4.88398 57.4733 11.1C63.6893 17.316 67.0933 25.5053 67.0933 34.2866C67.0933 43.0187 63.6893 51.2573 57.4733 57.4733C51.2573 63.5907 43.068 66.9947 34.2866 66.9947ZM34.2866 4.43998C17.8586 4.43998 4.4893 17.8093 4.4893 34.2373C4.4893 50.6653 17.8586 64.084 34.336 64.084C50.764 64.084 64.1826 50.7147 64.1826 34.2373C64.1826 17.76 50.764 4.43998 34.2866 4.43998Z" fill="#9942B8"/>
<path d="M39.7134 65.712C30.9814 65.712 22.7427 62.308 16.5267 56.092C10.3601 49.9253 6.90674 41.6866 6.90674 32.9053C6.90674 24.1733 10.3107 15.9346 16.5267 9.71863C22.7427 3.50263 30.9321 0.0986328 39.7134 0.0986328C48.4454 0.0986328 56.6841 3.50263 62.9001 9.71863C69.0667 15.8853 72.5201 24.124 72.5201 32.9053C72.5201 41.6373 69.1161 49.876 62.9001 56.092C56.6841 62.308 48.4454 65.712 39.7134 65.712ZM39.7134 3.10797C23.2361 3.10797 9.86674 16.4773 9.86674 32.9546C9.86674 49.3826 23.2361 62.8013 39.7134 62.8013C56.1907 62.8013 69.5601 49.432 69.5601 32.9546C69.5107 16.4773 56.1414 3.10797 39.7134 3.10797Z" fill="#333333"/>
<path opacity="0.9" d="M35.2734 73.8025C26.5414 73.8025 18.3028 70.3985 12.0868 64.1825C5.92011 58.0159 2.51611 49.8265 2.51611 41.0452C2.51611 32.3132 5.92011 24.0745 12.1361 17.8585C18.3521 11.6425 26.5414 8.23853 35.3228 8.23853C44.1041 8.23853 52.2934 11.6425 58.5094 17.8585C64.6268 24.0745 68.0801 32.3132 68.0801 41.0452C68.0801 49.7772 64.6761 58.0159 58.4601 64.2319C52.2934 70.3985 44.0548 73.8025 35.2734 73.8025ZM35.2734 11.2479C18.8454 11.2479 5.42678 24.6172 5.42678 41.0945C5.42678 57.5719 18.7961 70.9412 35.2734 70.9412C51.7014 70.9412 65.1201 57.5719 65.1201 41.0945C65.1201 24.6172 51.7508 11.2479 35.2734 11.2479Z" fill="#4D12AE"/>
<path opacity="0.9" d="M52.3919 27.4786C51.2572 27.9719 50.0239 28.3172 48.7412 28.4652C50.0239 27.6759 51.0599 26.4426 51.5039 24.9626C50.2706 25.7026 48.9386 26.1959 47.5079 26.4919C46.3732 25.2586 44.6959 24.5186 42.9199 24.5186C39.4172 24.5186 36.6052 27.3306 36.6052 30.8332C36.6052 31.3266 36.6546 31.8199 36.7532 32.2639C31.5239 32.0172 26.8866 29.5012 23.7786 25.6532C23.2359 26.5906 22.9399 27.6759 22.9399 28.8599C22.9399 31.0306 24.0746 32.9546 25.7519 34.0892C24.7159 34.0892 23.7292 33.7932 22.8906 33.2999V33.3492C22.8906 36.4079 25.0612 38.9732 27.9226 39.5652C27.4292 39.7132 26.8372 39.7626 26.2946 39.7626C25.8999 39.7626 25.5052 39.7626 25.1106 39.6639C25.9492 42.1799 28.2679 44.0052 30.9812 44.0546C28.8599 45.7319 26.0972 46.7186 23.1866 46.7186C22.6932 46.7186 22.1506 46.7186 21.6572 46.6199C24.4692 48.3959 27.7746 49.4319 31.3266 49.4319C42.9199 49.4319 49.2839 39.8119 49.2839 31.4746C49.2839 31.1786 49.2839 30.9319 49.2839 30.6359C50.4679 29.8466 51.5039 28.7612 52.3919 27.4786Z" fill="#4D12AE"/>
</svg>
