<svg width="74" height="74" viewBox="0 0 74 74" fill="none" xmlns="http://www.w3.org/2000/svg">
<path d="M34.2866 66.9947C25.5546 66.9947 17.316 63.5907 11.1 57.3747C4.88396 51.1587 1.5293 43.0187 1.5293 34.2373C1.5293 25.5053 4.9333 17.2666 11.1493 11.0506C17.3653 4.83465 25.5546 1.47998 34.2866 1.47998C43.0186 1.47998 51.2573 4.88398 57.4733 11.1C63.6893 17.316 67.0933 25.5053 67.0933 34.2866C67.0933 43.0187 63.6893 51.2573 57.4733 57.4733C51.2573 63.5907 43.068 66.9947 34.2866 66.9947ZM34.2866 4.43998C17.8586 4.43998 4.4893 17.8093 4.4893 34.2373C4.4893 50.6653 17.8586 64.084 34.336 64.084C50.764 64.084 64.1826 50.7147 64.1826 34.2373C64.1826 17.76 50.764 4.43998 34.2866 4.43998Z" fill="#333333"/>
<path d="M39.7134 65.712C30.9814 65.712 22.7427 62.308 16.5267 56.092C10.3601 49.9253 6.90674 41.6866 6.90674 32.9053C6.90674 24.1733 10.3107 15.9346 16.5267 9.71863C22.7427 3.50263 30.9321 0.0986328 39.7134 0.0986328C48.4454 0.0986328 56.6841 3.50263 62.9001 9.71863C69.0667 15.8853 72.5201 24.124 72.5201 32.9053C72.5201 41.6373 69.1161 49.876 62.9001 56.092C56.6841 62.308 48.4454 65.712 39.7134 65.712ZM39.7134 3.10797C23.2361 3.10797 9.86674 16.4773 9.86674 32.9546C9.86674 49.3826 23.2361 62.8013 39.7134 62.8013C56.1907 62.8013 69.5601 49.432 69.5601 32.9546C69.5107 16.4773 56.1414 3.10797 39.7134 3.10797Z" fill="#9942B8"/>
<path opacity="0.9" d="M35.2734 73.8025C26.5414 73.8025 18.3028 70.3985 12.0868 64.1825C5.92011 58.0159 2.51611 49.8265 2.51611 41.0452C2.51611 32.3132 5.92011 24.0745 12.1361 17.8585C18.3521 11.6425 26.5414 8.23853 35.3228 8.23853C44.1041 8.23853 52.2934 11.6425 58.5094 17.8585C64.6268 24.0745 68.0801 32.3132 68.0801 41.0452C68.0801 49.7772 64.6761 58.0159 58.4601 64.2319C52.2934 70.3985 44.0548 73.8025 35.2734 73.8025ZM35.2734 11.2479C18.8454 11.2479 5.42678 24.6172 5.42678 41.0945C5.42678 57.5719 18.7961 70.9412 35.2734 70.9412C51.7015 70.9412 65.1201 57.5719 65.1201 41.0945C65.1201 24.6172 51.7508 11.2479 35.2734 11.2479Z" fill="#4D12AE"/>
<g opacity="0.9">
<path d="M34.0401 31.0307C33.3001 30.5867 32.4121 31.1293 32.4121 31.968V42.0813C32.4121 42.92 33.3494 43.4133 34.0401 43.0187L42.5254 37.9867C43.2161 37.5427 43.2161 36.556 42.5254 36.112L34.0401 31.0307ZM34.5334 40.1573V33.8427L39.8121 37L34.5334 40.1573Z" fill="#4D12AE"/>
<path d="M48.396 24.4199C41.6866 23.4333 32.3133 23.4333 25.604 24.4199C22.94 24.8146 20.8186 26.9359 20.3253 29.6493C19.4866 34.7306 19.4866 39.2693 20.3253 44.3506C20.7693 47.0639 22.8906 49.1853 25.604 49.5799C28.9586 50.0733 33.004 50.3199 37 50.3199C40.996 50.3199 45.0413 50.0733 48.396 49.5799C51.06 49.1853 53.1813 47.0639 53.6746 44.3506C54.5133 39.2693 54.5133 34.7306 53.6746 29.6493C53.1813 26.9359 51.06 24.8146 48.396 24.4199ZM51.504 44.0053C51.208 45.8306 49.8266 47.2119 48.0506 47.4586C41.5386 48.4453 32.412 48.4453 25.9 47.4586C24.124 47.2119 22.7426 45.8306 22.4466 44.0053C21.608 39.1213 21.608 34.9279 22.4466 30.0439C22.7426 28.2186 24.124 26.8373 25.9 26.5906C29.156 26.0973 33.0533 25.8506 36.9506 25.8506C40.848 25.8506 44.7453 26.0973 48.0506 26.5906C49.8266 26.8373 51.208 28.2186 51.504 30.0439C52.3426 34.9279 52.3426 39.0719 51.504 44.0053Z" fill="#4D12AE"/>
</g>
</svg>
