<svg width="33" height="49" viewBox="0 0 33 49" fill="none" xmlns="http://www.w3.org/2000/svg">
<path d="M0.5 31C0.5 30.7239 0.723857 30.5 1 30.5H10C10.2761 30.5 10.5 30.7239 10.5 31V48.5H0.5V31Z" stroke="#777373"/>
<path d="M11.5 22C11.5 21.7239 11.7239 21.5 12 21.5H22C22.2761 21.5 22.5 21.7239 22.5 22V48.5H11.5V22Z" stroke="#777373"/>
<path d="M23.5 37C23.5 36.7239 23.7239 36.5 24 36.5H32C32.2761 36.5 32.5 36.7239 32.5 37V48.5H23.5V37Z" stroke="#777373"/>
<path d="M16.8573 1.57168C16.9022 1.43348 17.0978 1.43349 17.1427 1.57168L18.5755 5.98151C18.6893 6.33173 19.0157 6.56885 19.3839 6.56885H24.0207C24.166 6.56885 24.2264 6.75479 24.1088 6.8402L20.3576 9.56562C20.0597 9.78207 19.935 10.1657 20.0488 10.516L21.4817 14.9258C21.5266 15.064 21.3684 15.1789 21.2508 15.0935L17.4996 12.3681C17.2017 12.1516 16.7983 12.1516 16.5004 12.3681L12.7492 15.0935C12.6316 15.1789 12.4734 15.064 12.5183 14.9258L13.9512 10.516C14.065 10.1657 13.9403 9.78207 13.6424 9.56562L9.89117 6.8402C9.77361 6.75479 9.83403 6.56885 9.97933 6.56885H14.6161C14.9843 6.56885 15.3107 6.33173 15.4245 5.98151L16.8573 1.57168Z" stroke="#777373" stroke-width="0.7"/>
</svg>
