<svg width="37" height="37" viewBox="0 0 37 37" fill="none" xmlns="http://www.w3.org/2000/svg">
<path d="M18.5002 28.0584C21.9059 28.0584 24.6668 25.2975 24.6668 21.8918C24.6668 18.486 21.9059 15.7251 18.5002 15.7251C15.0944 15.7251 12.3335 18.486 12.3335 21.8918C12.3335 25.2975 15.0944 28.0584 18.5002 28.0584Z" stroke="#777373" stroke-miterlimit="10" stroke-linecap="round" stroke-linejoin="round"/>
<path d="M16.0952 22.0457L17.0973 23.0478C17.3902 23.3407 17.8681 23.3407 18.161 23.0632L20.9052 20.5349" stroke="#777373" stroke-linecap="round" stroke-linejoin="round"/>
<path d="M12.3331 33.9167H24.6664C30.8639 33.9167 31.9739 31.4346 32.2977 28.4129L33.4539 16.0796C33.8702 12.3179 32.791 9.25 26.2081 9.25H10.7914C4.20852 9.25 3.12936 12.3179 3.54561 16.0796L4.70186 28.4129C5.02561 31.4346 6.13561 33.9167 12.3331 33.9167Z" stroke="#777373" stroke-miterlimit="10" stroke-linecap="round" stroke-linejoin="round"/>
<path d="M12.3335 9.24992V8.01658C12.3335 5.28783 12.3335 3.08325 17.2668 3.08325H19.7335C24.6668 3.08325 24.6668 5.28783 24.6668 8.01658V9.24992" stroke="#777373" stroke-miterlimit="10" stroke-linecap="round" stroke-linejoin="round"/>
<path d="M33.3771 16.9583C30.71 18.9008 27.75 20.2574 24.6821 21.0283" stroke="#777373" stroke-miterlimit="10" stroke-linecap="round" stroke-linejoin="round"/>
<path d="M4.03906 17.3745C6.61365 19.132 9.41948 20.3808 12.3332 21.0899" stroke="#777373" stroke-miterlimit="10" stroke-linecap="round" stroke-linejoin="round"/>
</svg>
