<svg width="20" height="19" viewBox="0 0 20 19" fill="none" xmlns="http://www.w3.org/2000/svg">
<path d="M15.25 14.7649C18.2773 11.7376 18.2773 6.8365 15.25 3.81689" stroke="#777373" stroke-width="1.5" stroke-linecap="round" stroke-linejoin="round"/>
<path d="M4.30274 3.81689C1.27539 6.84424 1.27539 11.7453 4.30274 14.7649" stroke="#777373" stroke-width="1.5" stroke-linecap="round" stroke-linejoin="round"/>
<path d="M7.22168 16.5767C8.05014 16.8631 8.90955 17.0025 9.77672 17.0025C10.6439 16.9948 11.5033 16.8631 12.3318 16.5767" stroke="#777373" stroke-width="1.5" stroke-linecap="round" stroke-linejoin="round"/>
<path d="M7.22168 2.00523C8.05014 1.71875 8.90955 1.57935 9.77672 1.57935C10.6439 1.57935 11.5033 1.71875 12.3318 2.00523" stroke="#777373" stroke-width="1.5" stroke-linecap="round" stroke-linejoin="round"/>
<path d="M7.25195 9.29084V7.99784C7.25195 6.38738 8.39013 5.72925 9.78379 6.53448L10.9064 7.18488L12.0291 7.83523C13.4228 8.64045 13.4228 9.95672 12.0291 10.7619L10.9064 11.4123L9.78379 12.0627C8.39013 12.8679 7.25195 12.2098 7.25195 10.5993V9.29084Z" stroke="#777373" stroke-width="1.5" stroke-miterlimit="10" stroke-linecap="round" stroke-linejoin="round"/>
</svg>
