<svg width="39" height="40" viewBox="0 0 39 40" fill="none" xmlns="http://www.w3.org/2000/svg">
<path d="M33.1461 19.17V12.2821C33.1461 5.76612 31.6262 4.13306 25.5144 4.13306H13.2908C7.17905 4.13306 5.65918 5.76612 5.65918 12.2821V30.4881C5.65918 34.789 8.01984 35.8077 10.8817 32.7356L10.8978 32.7194C12.2237 31.3128 14.2448 31.4259 15.3928 32.962L17.0258 35.1448" stroke="#4D12AE" stroke-linecap="round" stroke-linejoin="round"/>
<path d="M12.9351 12.2175H25.8701" stroke="#4D12AE" stroke-linecap="round" stroke-linejoin="round"/>
<path d="M14.5518 18.6851H24.253" stroke="#4D12AE" stroke-linecap="round" stroke-linejoin="round"/>
<path d="M29.4448 24.7812L23.7211 30.505C23.4948 30.7313 23.2845 31.1517 23.236 31.4589L22.9288 33.6417C22.8156 34.434 23.3654 34.9838 24.1577 34.8706L26.3405 34.5634C26.6477 34.5149 27.0842 34.3046 27.2944 34.0783L33.0182 28.3546C34.0045 27.3683 34.4734 26.2203 33.0182 24.7651C31.5792 23.3261 30.4311 23.7949 29.4448 24.7812Z" stroke="#4D12AE" stroke-miterlimit="10" stroke-linecap="round" stroke-linejoin="round"/>
<path d="M28.6172 25.6057C29.1023 27.3519 30.4604 28.7101 32.2067 29.1952" stroke="#4D12AE" stroke-miterlimit="10" stroke-linecap="round" stroke-linejoin="round"/>
</svg>
